<?xml version="1.0" encoding="utf-8" standalone="no"?>
<!DOCTYPE svg PUBLIC "-//W3C//DTD SVG 1.1//EN"
  "http://www.w3.org/Graphics/SVG/1.1/DTD/svg11.dtd">
<svg xmlns:xlink="http://www.w3.org/1999/xlink" width="460.8pt" height="345.6pt" viewBox="0 0 460.8 345.6" xmlns="http://www.w3.org/2000/svg" version="1.1">
 <metadata>
  <rdf:RDF xmlns:dc="http://purl.org/dc/elements/1.1/" xmlns:cc="http://creativecommons.org/ns#" xmlns:rdf="http://www.w3.org/1999/02/22-rdf-syntax-ns#">
   <cc:Work>
    <dc:type rdf:resource="http://purl.org/dc/dcmitype/StillImage"/>
    <dc:date>2024-04-17T16:43:14.158597</dc:date>
    <dc:format>image/svg+xml</dc:format>
    <dc:creator>
     <cc:Agent>
      <dc:title>Matplotlib v3.7.1, https://matplotlib.org/</dc:title>
     </cc:Agent>
    </dc:creator>
   </cc:Work>
  </rdf:RDF>
 </metadata>
 <defs>
  <style type="text/css">*{stroke-linejoin: round; stroke-linecap: butt}</style>
 </defs>
 <g id="figure_1">
  <g id="patch_1">
   <path d="M 0 345.6 
L 460.8 345.6 
L 460.8 0 
L 0 0 
z
" style="fill: #ffffff"/>
  </g>
  <g id="axes_1">
   <g id="patch_2">
    <path d="M 57.6 307.584 
L 414.72 307.584 
L 414.72 41.472 
L 57.6 41.472 
z
" style="fill: #ffffff"/>
   </g>
   <g id="matplotlib.axis_1">
    <g id="xtick_1">
     <g id="line2d_1">
      <defs>
       <path id="m769afd8748" d="M 0 0 
L 0 3.5 
" style="stroke: #000000; stroke-width: 0.8"/>
      </defs>
      <g>
       <use xlink:href="#m769afd8748" x="191.919929" y="307.584" style="stroke: #000000; stroke-width: 0.8"/>
      </g>
     </g>
     <g id="text_1">
      <!-- $\mathdefault{10^{3}}$ -->
      <g transform="translate(183.119929 322.182437) scale(0.1 -0.1)">
       <defs>
        <path id="DejaVuSans-31" d="M 794 531 
L 1825 531 
L 1825 4091 
L 703 3866 
L 703 4441 
L 1819 4666 
L 2450 4666 
L 2450 531 
L 3481 531 
L 3481 0 
L 794 0 
L 794 531 
z
" transform="scale(0.015625)"/>
        <path id="DejaVuSans-30" d="M 2034 4250 
Q 1547 4250 1301 3770 
Q 1056 3291 1056 2328 
Q 1056 1369 1301 889 
Q 1547 409 2034 409 
Q 2525 409 2770 889 
Q 3016 1369 3016 2328 
Q 3016 3291 2770 3770 
Q 2525 4250 2034 4250 
z
M 2034 4750 
Q 2819 4750 3233 4129 
Q 3647 3509 3647 2328 
Q 3647 1150 3233 529 
Q 2819 -91 2034 -91 
Q 1250 -91 836 529 
Q 422 1150 422 2328 
Q 422 3509 836 4129 
Q 1250 4750 2034 4750 
z
" transform="scale(0.015625)"/>
        <path id="DejaVuSans-33" d="M 2597 2516 
Q 3050 2419 3304 2112 
Q 3559 1806 3559 1356 
Q 3559 666 3084 287 
Q 2609 -91 1734 -91 
Q 1441 -91 1130 -33 
Q 819 25 488 141 
L 488 750 
Q 750 597 1062 519 
Q 1375 441 1716 441 
Q 2309 441 2620 675 
Q 2931 909 2931 1356 
Q 2931 1769 2642 2001 
Q 2353 2234 1838 2234 
L 1294 2234 
L 1294 2753 
L 1863 2753 
Q 2328 2753 2575 2939 
Q 2822 3125 2822 3475 
Q 2822 3834 2567 4026 
Q 2313 4219 1838 4219 
Q 1578 4219 1281 4162 
Q 984 4106 628 3988 
L 628 4550 
Q 988 4650 1302 4700 
Q 1616 4750 1894 4750 
Q 2613 4750 3031 4423 
Q 3450 4097 3450 3541 
Q 3450 3153 3228 2886 
Q 3006 2619 2597 2516 
z
" transform="scale(0.015625)"/>
       </defs>
       <use xlink:href="#DejaVuSans-31" transform="translate(0 0.765625)"/>
       <use xlink:href="#DejaVuSans-30" transform="translate(63.623047 0.765625)"/>
       <use xlink:href="#DejaVuSans-33" transform="translate(128.203125 39.046875) scale(0.7)"/>
      </g>
     </g>
    </g>
    <g id="xtick_2">
     <g id="line2d_2">
      <g>
       <use xlink:href="#m769afd8748" x="354.60985" y="307.584" style="stroke: #000000; stroke-width: 0.8"/>
      </g>
     </g>
     <g id="text_2">
      <!-- $\mathdefault{10^{4}}$ -->
      <g transform="translate(345.80985 322.182437) scale(0.1 -0.1)">
       <defs>
        <path id="DejaVuSans-34" d="M 2419 4116 
L 825 1625 
L 2419 1625 
L 2419 4116 
z
M 2253 4666 
L 3047 4666 
L 3047 1625 
L 3713 1625 
L 3713 1100 
L 3047 1100 
L 3047 0 
L 2419 0 
L 2419 1100 
L 313 1100 
L 313 1709 
L 2253 4666 
z
" transform="scale(0.015625)"/>
       </defs>
       <use xlink:href="#DejaVuSans-31" transform="translate(0 0.684375)"/>
       <use xlink:href="#DejaVuSans-30" transform="translate(63.623047 0.684375)"/>
       <use xlink:href="#DejaVuSans-34" transform="translate(128.203125 38.965625) scale(0.7)"/>
      </g>
     </g>
    </g>
    <g id="xtick_3">
     <g id="line2d_3">
      <defs>
       <path id="mc923955a7c" d="M 0 0 
L 0 2 
" style="stroke: #000000; stroke-width: 0.6"/>
      </defs>
      <g>
       <use xlink:href="#mc923955a7c" x="78.204555" y="307.584" style="stroke: #000000; stroke-width: 0.6"/>
      </g>
     </g>
    </g>
    <g id="xtick_4">
     <g id="line2d_4">
      <g>
       <use xlink:href="#mc923955a7c" x="106.852828" y="307.584" style="stroke: #000000; stroke-width: 0.6"/>
      </g>
     </g>
    </g>
    <g id="xtick_5">
     <g id="line2d_5">
      <g>
       <use xlink:href="#mc923955a7c" x="127.179101" y="307.584" style="stroke: #000000; stroke-width: 0.6"/>
      </g>
     </g>
    </g>
    <g id="xtick_6">
     <g id="line2d_6">
      <g>
       <use xlink:href="#mc923955a7c" x="142.945383" y="307.584" style="stroke: #000000; stroke-width: 0.6"/>
      </g>
     </g>
    </g>
    <g id="xtick_7">
     <g id="line2d_7">
      <g>
       <use xlink:href="#mc923955a7c" x="155.827374" y="307.584" style="stroke: #000000; stroke-width: 0.6"/>
      </g>
     </g>
    </g>
    <g id="xtick_8">
     <g id="line2d_8">
      <g>
       <use xlink:href="#mc923955a7c" x="166.718942" y="307.584" style="stroke: #000000; stroke-width: 0.6"/>
      </g>
     </g>
    </g>
    <g id="xtick_9">
     <g id="line2d_9">
      <g>
       <use xlink:href="#mc923955a7c" x="176.153647" y="307.584" style="stroke: #000000; stroke-width: 0.6"/>
      </g>
     </g>
    </g>
    <g id="xtick_10">
     <g id="line2d_10">
      <g>
       <use xlink:href="#mc923955a7c" x="184.475647" y="307.584" style="stroke: #000000; stroke-width: 0.6"/>
      </g>
     </g>
    </g>
    <g id="xtick_11">
     <g id="line2d_11">
      <g>
       <use xlink:href="#mc923955a7c" x="240.894476" y="307.584" style="stroke: #000000; stroke-width: 0.6"/>
      </g>
     </g>
    </g>
    <g id="xtick_12">
     <g id="line2d_12">
      <g>
       <use xlink:href="#mc923955a7c" x="269.542749" y="307.584" style="stroke: #000000; stroke-width: 0.6"/>
      </g>
     </g>
    </g>
    <g id="xtick_13">
     <g id="line2d_13">
      <g>
       <use xlink:href="#mc923955a7c" x="289.869022" y="307.584" style="stroke: #000000; stroke-width: 0.6"/>
      </g>
     </g>
    </g>
    <g id="xtick_14">
     <g id="line2d_14">
      <g>
       <use xlink:href="#mc923955a7c" x="305.635304" y="307.584" style="stroke: #000000; stroke-width: 0.6"/>
      </g>
     </g>
    </g>
    <g id="xtick_15">
     <g id="line2d_15">
      <g>
       <use xlink:href="#mc923955a7c" x="318.517295" y="307.584" style="stroke: #000000; stroke-width: 0.6"/>
      </g>
     </g>
    </g>
    <g id="xtick_16">
     <g id="line2d_16">
      <g>
       <use xlink:href="#mc923955a7c" x="329.408863" y="307.584" style="stroke: #000000; stroke-width: 0.6"/>
      </g>
     </g>
    </g>
    <g id="xtick_17">
     <g id="line2d_17">
      <g>
       <use xlink:href="#mc923955a7c" x="338.843568" y="307.584" style="stroke: #000000; stroke-width: 0.6"/>
      </g>
     </g>
    </g>
    <g id="xtick_18">
     <g id="line2d_18">
      <g>
       <use xlink:href="#mc923955a7c" x="347.165568" y="307.584" style="stroke: #000000; stroke-width: 0.6"/>
      </g>
     </g>
    </g>
    <g id="xtick_19">
     <g id="line2d_19">
      <g>
       <use xlink:href="#mc923955a7c" x="403.584396" y="307.584" style="stroke: #000000; stroke-width: 0.6"/>
      </g>
     </g>
    </g>
    <g id="text_3">
     <!-- Number of Nodes [$n$] -->
     <g transform="translate(183.76 335.860562) scale(0.1 -0.1)">
      <defs>
       <path id="DejaVuSans-4e" d="M 628 4666 
L 1478 4666 
L 3547 763 
L 3547 4666 
L 4159 4666 
L 4159 0 
L 3309 0 
L 1241 3903 
L 1241 0 
L 628 0 
L 628 4666 
z
" transform="scale(0.015625)"/>
       <path id="DejaVuSans-75" d="M 544 1381 
L 544 3500 
L 1119 3500 
L 1119 1403 
Q 1119 906 1312 657 
Q 1506 409 1894 409 
Q 2359 409 2629 706 
Q 2900 1003 2900 1516 
L 2900 3500 
L 3475 3500 
L 3475 0 
L 2900 0 
L 2900 538 
Q 2691 219 2414 64 
Q 2138 -91 1772 -91 
Q 1169 -91 856 284 
Q 544 659 544 1381 
z
M 1991 3584 
L 1991 3584 
z
" transform="scale(0.015625)"/>
       <path id="DejaVuSans-6d" d="M 3328 2828 
Q 3544 3216 3844 3400 
Q 4144 3584 4550 3584 
Q 5097 3584 5394 3201 
Q 5691 2819 5691 2113 
L 5691 0 
L 5113 0 
L 5113 2094 
Q 5113 2597 4934 2840 
Q 4756 3084 4391 3084 
Q 3944 3084 3684 2787 
Q 3425 2491 3425 1978 
L 3425 0 
L 2847 0 
L 2847 2094 
Q 2847 2600 2669 2842 
Q 2491 3084 2119 3084 
Q 1678 3084 1418 2786 
Q 1159 2488 1159 1978 
L 1159 0 
L 581 0 
L 581 3500 
L 1159 3500 
L 1159 2956 
Q 1356 3278 1631 3431 
Q 1906 3584 2284 3584 
Q 2666 3584 2933 3390 
Q 3200 3197 3328 2828 
z
" transform="scale(0.015625)"/>
       <path id="DejaVuSans-62" d="M 3116 1747 
Q 3116 2381 2855 2742 
Q 2594 3103 2138 3103 
Q 1681 3103 1420 2742 
Q 1159 2381 1159 1747 
Q 1159 1113 1420 752 
Q 1681 391 2138 391 
Q 2594 391 2855 752 
Q 3116 1113 3116 1747 
z
M 1159 2969 
Q 1341 3281 1617 3432 
Q 1894 3584 2278 3584 
Q 2916 3584 3314 3078 
Q 3713 2572 3713 1747 
Q 3713 922 3314 415 
Q 2916 -91 2278 -91 
Q 1894 -91 1617 61 
Q 1341 213 1159 525 
L 1159 0 
L 581 0 
L 581 4863 
L 1159 4863 
L 1159 2969 
z
" transform="scale(0.015625)"/>
       <path id="DejaVuSans-65" d="M 3597 1894 
L 3597 1613 
L 953 1613 
Q 991 1019 1311 708 
Q 1631 397 2203 397 
Q 2534 397 2845 478 
Q 3156 559 3463 722 
L 3463 178 
Q 3153 47 2828 -22 
Q 2503 -91 2169 -91 
Q 1331 -91 842 396 
Q 353 884 353 1716 
Q 353 2575 817 3079 
Q 1281 3584 2069 3584 
Q 2775 3584 3186 3129 
Q 3597 2675 3597 1894 
z
M 3022 2063 
Q 3016 2534 2758 2815 
Q 2500 3097 2075 3097 
Q 1594 3097 1305 2825 
Q 1016 2553 972 2059 
L 3022 2063 
z
" transform="scale(0.015625)"/>
       <path id="DejaVuSans-72" d="M 2631 2963 
Q 2534 3019 2420 3045 
Q 2306 3072 2169 3072 
Q 1681 3072 1420 2755 
Q 1159 2438 1159 1844 
L 1159 0 
L 581 0 
L 581 3500 
L 1159 3500 
L 1159 2956 
Q 1341 3275 1631 3429 
Q 1922 3584 2338 3584 
Q 2397 3584 2469 3576 
Q 2541 3569 2628 3553 
L 2631 2963 
z
" transform="scale(0.015625)"/>
       <path id="DejaVuSans-20" transform="scale(0.015625)"/>
       <path id="DejaVuSans-6f" d="M 1959 3097 
Q 1497 3097 1228 2736 
Q 959 2375 959 1747 
Q 959 1119 1226 758 
Q 1494 397 1959 397 
Q 2419 397 2687 759 
Q 2956 1122 2956 1747 
Q 2956 2369 2687 2733 
Q 2419 3097 1959 3097 
z
M 1959 3584 
Q 2709 3584 3137 3096 
Q 3566 2609 3566 1747 
Q 3566 888 3137 398 
Q 2709 -91 1959 -91 
Q 1206 -91 779 398 
Q 353 888 353 1747 
Q 353 2609 779 3096 
Q 1206 3584 1959 3584 
z
" transform="scale(0.015625)"/>
       <path id="DejaVuSans-66" d="M 2375 4863 
L 2375 4384 
L 1825 4384 
Q 1516 4384 1395 4259 
Q 1275 4134 1275 3809 
L 1275 3500 
L 2222 3500 
L 2222 3053 
L 1275 3053 
L 1275 0 
L 697 0 
L 697 3053 
L 147 3053 
L 147 3500 
L 697 3500 
L 697 3744 
Q 697 4328 969 4595 
Q 1241 4863 1831 4863 
L 2375 4863 
z
" transform="scale(0.015625)"/>
       <path id="DejaVuSans-64" d="M 2906 2969 
L 2906 4863 
L 3481 4863 
L 3481 0 
L 2906 0 
L 2906 525 
Q 2725 213 2448 61 
Q 2172 -91 1784 -91 
Q 1150 -91 751 415 
Q 353 922 353 1747 
Q 353 2572 751 3078 
Q 1150 3584 1784 3584 
Q 2172 3584 2448 3432 
Q 2725 3281 2906 2969 
z
M 947 1747 
Q 947 1113 1208 752 
Q 1469 391 1925 391 
Q 2381 391 2643 752 
Q 2906 1113 2906 1747 
Q 2906 2381 2643 2742 
Q 2381 3103 1925 3103 
Q 1469 3103 1208 2742 
Q 947 2381 947 1747 
z
" transform="scale(0.015625)"/>
       <path id="DejaVuSans-73" d="M 2834 3397 
L 2834 2853 
Q 2591 2978 2328 3040 
Q 2066 3103 1784 3103 
Q 1356 3103 1142 2972 
Q 928 2841 928 2578 
Q 928 2378 1081 2264 
Q 1234 2150 1697 2047 
L 1894 2003 
Q 2506 1872 2764 1633 
Q 3022 1394 3022 966 
Q 3022 478 2636 193 
Q 2250 -91 1575 -91 
Q 1294 -91 989 -36 
Q 684 19 347 128 
L 347 722 
Q 666 556 975 473 
Q 1284 391 1588 391 
Q 1994 391 2212 530 
Q 2431 669 2431 922 
Q 2431 1156 2273 1281 
Q 2116 1406 1581 1522 
L 1381 1569 
Q 847 1681 609 1914 
Q 372 2147 372 2553 
Q 372 3047 722 3315 
Q 1072 3584 1716 3584 
Q 2034 3584 2315 3537 
Q 2597 3491 2834 3397 
z
" transform="scale(0.015625)"/>
       <path id="DejaVuSans-5b" d="M 550 4863 
L 1875 4863 
L 1875 4416 
L 1125 4416 
L 1125 -397 
L 1875 -397 
L 1875 -844 
L 550 -844 
L 550 4863 
z
" transform="scale(0.015625)"/>
       <path id="DejaVuSans-Oblique-6e" d="M 3566 2113 
L 3156 0 
L 2578 0 
L 2988 2091 
Q 3016 2238 3031 2350 
Q 3047 2463 3047 2528 
Q 3047 2791 2881 2937 
Q 2716 3084 2419 3084 
Q 1956 3084 1622 2776 
Q 1288 2469 1184 1941 
L 800 0 
L 225 0 
L 903 3500 
L 1478 3500 
L 1363 2950 
Q 1603 3253 1940 3418 
Q 2278 3584 2650 3584 
Q 3113 3584 3367 3334 
Q 3622 3084 3622 2631 
Q 3622 2519 3608 2391 
Q 3594 2263 3566 2113 
z
" transform="scale(0.015625)"/>
       <path id="DejaVuSans-5d" d="M 1947 4863 
L 1947 -844 
L 622 -844 
L 622 -397 
L 1369 -397 
L 1369 4416 
L 622 4416 
L 622 4863 
L 1947 4863 
z
" transform="scale(0.015625)"/>
      </defs>
      <use xlink:href="#DejaVuSans-4e" transform="translate(0 0.015625)"/>
      <use xlink:href="#DejaVuSans-75" transform="translate(74.804688 0.015625)"/>
      <use xlink:href="#DejaVuSans-6d" transform="translate(138.183594 0.015625)"/>
      <use xlink:href="#DejaVuSans-62" transform="translate(235.595703 0.015625)"/>
      <use xlink:href="#DejaVuSans-65" transform="translate(299.072266 0.015625)"/>
      <use xlink:href="#DejaVuSans-72" transform="translate(360.595703 0.015625)"/>
      <use xlink:href="#DejaVuSans-20" transform="translate(401.708984 0.015625)"/>
      <use xlink:href="#DejaVuSans-6f" transform="translate(433.496094 0.015625)"/>
      <use xlink:href="#DejaVuSans-66" transform="translate(494.677734 0.015625)"/>
      <use xlink:href="#DejaVuSans-20" transform="translate(529.882812 0.015625)"/>
      <use xlink:href="#DejaVuSans-4e" transform="translate(561.669922 0.015625)"/>
      <use xlink:href="#DejaVuSans-6f" transform="translate(636.474609 0.015625)"/>
      <use xlink:href="#DejaVuSans-64" transform="translate(697.65625 0.015625)"/>
      <use xlink:href="#DejaVuSans-65" transform="translate(761.132812 0.015625)"/>
      <use xlink:href="#DejaVuSans-73" transform="translate(822.65625 0.015625)"/>
      <use xlink:href="#DejaVuSans-20" transform="translate(874.755859 0.015625)"/>
      <use xlink:href="#DejaVuSans-5b" transform="translate(906.542969 0.015625)"/>
      <use xlink:href="#DejaVuSans-Oblique-6e" transform="translate(945.556641 0.015625)"/>
      <use xlink:href="#DejaVuSans-5d" transform="translate(1008.935547 0.015625)"/>
     </g>
    </g>
   </g>
   <g id="matplotlib.axis_2">
    <g id="ytick_1">
     <g id="line2d_20">
      <defs>
       <path id="m63b7462836" d="M 0 0 
L -3.5 0 
" style="stroke: #000000; stroke-width: 0.8"/>
      </defs>
      <g>
       <use xlink:href="#m63b7462836" x="57.6" y="286.687029" style="stroke: #000000; stroke-width: 0.8"/>
      </g>
     </g>
     <g id="text_4">
      <!-- $\mathdefault{10^{2}}$ -->
      <g transform="translate(33 290.486248) scale(0.1 -0.1)">
       <defs>
        <path id="DejaVuSans-32" d="M 1228 531 
L 3431 531 
L 3431 0 
L 469 0 
L 469 531 
Q 828 903 1448 1529 
Q 2069 2156 2228 2338 
Q 2531 2678 2651 2914 
Q 2772 3150 2772 3378 
Q 2772 3750 2511 3984 
Q 2250 4219 1831 4219 
Q 1534 4219 1204 4116 
Q 875 4013 500 3803 
L 500 4441 
Q 881 4594 1212 4672 
Q 1544 4750 1819 4750 
Q 2544 4750 2975 4387 
Q 3406 4025 3406 3419 
Q 3406 3131 3298 2873 
Q 3191 2616 2906 2266 
Q 2828 2175 2409 1742 
Q 1991 1309 1228 531 
z
" transform="scale(0.015625)"/>
       </defs>
       <use xlink:href="#DejaVuSans-31" transform="translate(0 0.765625)"/>
       <use xlink:href="#DejaVuSans-30" transform="translate(63.623047 0.765625)"/>
       <use xlink:href="#DejaVuSans-32" transform="translate(128.203125 39.046875) scale(0.7)"/>
      </g>
     </g>
    </g>
    <g id="ytick_2">
     <g id="line2d_21">
      <g>
       <use xlink:href="#m63b7462836" x="57.6" y="195.871124" style="stroke: #000000; stroke-width: 0.8"/>
      </g>
     </g>
     <g id="text_5">
      <!-- $\mathdefault{10^{3}}$ -->
      <g transform="translate(33 199.670343) scale(0.1 -0.1)">
       <use xlink:href="#DejaVuSans-31" transform="translate(0 0.765625)"/>
       <use xlink:href="#DejaVuSans-30" transform="translate(63.623047 0.765625)"/>
       <use xlink:href="#DejaVuSans-33" transform="translate(128.203125 39.046875) scale(0.7)"/>
      </g>
     </g>
    </g>
    <g id="ytick_3">
     <g id="line2d_22">
      <g>
       <use xlink:href="#m63b7462836" x="57.6" y="105.055219" style="stroke: #000000; stroke-width: 0.8"/>
      </g>
     </g>
     <g id="text_6">
      <!-- $\mathdefault{10^{4}}$ -->
      <g transform="translate(33 108.854438) scale(0.1 -0.1)">
       <use xlink:href="#DejaVuSans-31" transform="translate(0 0.684375)"/>
       <use xlink:href="#DejaVuSans-30" transform="translate(63.623047 0.684375)"/>
       <use xlink:href="#DejaVuSans-34" transform="translate(128.203125 38.965625) scale(0.7)"/>
      </g>
     </g>
    </g>
    <g id="ytick_4">
     <g id="line2d_23">
      <defs>
       <path id="me16c4f03df" d="M 0 0 
L -2 0 
" style="stroke: #000000; stroke-width: 0.6"/>
      </defs>
      <g>
       <use xlink:href="#me16c4f03df" x="57.6" y="306.834424" style="stroke: #000000; stroke-width: 0.6"/>
      </g>
     </g>
    </g>
    <g id="ytick_5">
     <g id="line2d_24">
      <g>
       <use xlink:href="#me16c4f03df" x="57.6" y="300.754591" style="stroke: #000000; stroke-width: 0.6"/>
      </g>
     </g>
    </g>
    <g id="ytick_6">
     <g id="line2d_25">
      <g>
       <use xlink:href="#me16c4f03df" x="57.6" y="295.488" style="stroke: #000000; stroke-width: 0.6"/>
      </g>
     </g>
    </g>
    <g id="ytick_7">
     <g id="line2d_26">
      <g>
       <use xlink:href="#me16c4f03df" x="57.6" y="290.842537" style="stroke: #000000; stroke-width: 0.6"/>
      </g>
     </g>
    </g>
    <g id="ytick_8">
     <g id="line2d_27">
      <g>
       <use xlink:href="#me16c4f03df" x="57.6" y="259.348718" style="stroke: #000000; stroke-width: 0.6"/>
      </g>
     </g>
    </g>
    <g id="ytick_9">
     <g id="line2d_28">
      <g>
       <use xlink:href="#me16c4f03df" x="57.6" y="243.356831" style="stroke: #000000; stroke-width: 0.6"/>
      </g>
     </g>
    </g>
    <g id="ytick_10">
     <g id="line2d_29">
      <g>
       <use xlink:href="#me16c4f03df" x="57.6" y="232.010406" style="stroke: #000000; stroke-width: 0.6"/>
      </g>
     </g>
    </g>
    <g id="ytick_11">
     <g id="line2d_30">
      <g>
       <use xlink:href="#me16c4f03df" x="57.6" y="223.209436" style="stroke: #000000; stroke-width: 0.6"/>
      </g>
     </g>
    </g>
    <g id="ytick_12">
     <g id="line2d_31">
      <g>
       <use xlink:href="#me16c4f03df" x="57.6" y="216.018519" style="stroke: #000000; stroke-width: 0.6"/>
      </g>
     </g>
    </g>
    <g id="ytick_13">
     <g id="line2d_32">
      <g>
       <use xlink:href="#me16c4f03df" x="57.6" y="209.938686" style="stroke: #000000; stroke-width: 0.6"/>
      </g>
     </g>
    </g>
    <g id="ytick_14">
     <g id="line2d_33">
      <g>
       <use xlink:href="#me16c4f03df" x="57.6" y="204.672095" style="stroke: #000000; stroke-width: 0.6"/>
      </g>
     </g>
    </g>
    <g id="ytick_15">
     <g id="line2d_34">
      <g>
       <use xlink:href="#me16c4f03df" x="57.6" y="200.026632" style="stroke: #000000; stroke-width: 0.6"/>
      </g>
     </g>
    </g>
    <g id="ytick_16">
     <g id="line2d_35">
      <g>
       <use xlink:href="#me16c4f03df" x="57.6" y="168.532813" style="stroke: #000000; stroke-width: 0.6"/>
      </g>
     </g>
    </g>
    <g id="ytick_17">
     <g id="line2d_36">
      <g>
       <use xlink:href="#me16c4f03df" x="57.6" y="152.540926" style="stroke: #000000; stroke-width: 0.6"/>
      </g>
     </g>
    </g>
    <g id="ytick_18">
     <g id="line2d_37">
      <g>
       <use xlink:href="#me16c4f03df" x="57.6" y="141.194501" style="stroke: #000000; stroke-width: 0.6"/>
      </g>
     </g>
    </g>
    <g id="ytick_19">
     <g id="line2d_38">
      <g>
       <use xlink:href="#me16c4f03df" x="57.6" y="132.393531" style="stroke: #000000; stroke-width: 0.6"/>
      </g>
     </g>
    </g>
    <g id="ytick_20">
     <g id="line2d_39">
      <g>
       <use xlink:href="#me16c4f03df" x="57.6" y="125.202614" style="stroke: #000000; stroke-width: 0.6"/>
      </g>
     </g>
    </g>
    <g id="ytick_21">
     <g id="line2d_40">
      <g>
       <use xlink:href="#me16c4f03df" x="57.6" y="119.122781" style="stroke: #000000; stroke-width: 0.6"/>
      </g>
     </g>
    </g>
    <g id="ytick_22">
     <g id="line2d_41">
      <g>
       <use xlink:href="#me16c4f03df" x="57.6" y="113.85619" style="stroke: #000000; stroke-width: 0.6"/>
      </g>
     </g>
    </g>
    <g id="ytick_23">
     <g id="line2d_42">
      <g>
       <use xlink:href="#me16c4f03df" x="57.6" y="109.210727" style="stroke: #000000; stroke-width: 0.6"/>
      </g>
     </g>
    </g>
    <g id="ytick_24">
     <g id="line2d_43">
      <g>
       <use xlink:href="#me16c4f03df" x="57.6" y="77.716908" style="stroke: #000000; stroke-width: 0.6"/>
      </g>
     </g>
    </g>
    <g id="ytick_25">
     <g id="line2d_44">
      <g>
       <use xlink:href="#me16c4f03df" x="57.6" y="61.72502" style="stroke: #000000; stroke-width: 0.6"/>
      </g>
     </g>
    </g>
    <g id="ytick_26">
     <g id="line2d_45">
      <g>
       <use xlink:href="#me16c4f03df" x="57.6" y="50.378596" style="stroke: #000000; stroke-width: 0.6"/>
      </g>
     </g>
    </g>
    <g id="ytick_27">
     <g id="line2d_46">
      <g>
       <use xlink:href="#me16c4f03df" x="57.6" y="41.577625" style="stroke: #000000; stroke-width: 0.6"/>
      </g>
     </g>
    </g>
    <g id="text_7">
     <!-- Band size [$\#$] -->
     <g transform="translate(26.920312 208.378) rotate(-90) scale(0.1 -0.1)">
      <defs>
       <path id="DejaVuSans-42" d="M 1259 2228 
L 1259 519 
L 2272 519 
Q 2781 519 3026 730 
Q 3272 941 3272 1375 
Q 3272 1813 3026 2020 
Q 2781 2228 2272 2228 
L 1259 2228 
z
M 1259 4147 
L 1259 2741 
L 2194 2741 
Q 2656 2741 2882 2914 
Q 3109 3088 3109 3444 
Q 3109 3797 2882 3972 
Q 2656 4147 2194 4147 
L 1259 4147 
z
M 628 4666 
L 2241 4666 
Q 2963 4666 3353 4366 
Q 3744 4066 3744 3513 
Q 3744 3084 3544 2831 
Q 3344 2578 2956 2516 
Q 3422 2416 3680 2098 
Q 3938 1781 3938 1306 
Q 3938 681 3513 340 
Q 3088 0 2303 0 
L 628 0 
L 628 4666 
z
" transform="scale(0.015625)"/>
       <path id="DejaVuSans-61" d="M 2194 1759 
Q 1497 1759 1228 1600 
Q 959 1441 959 1056 
Q 959 750 1161 570 
Q 1363 391 1709 391 
Q 2188 391 2477 730 
Q 2766 1069 2766 1631 
L 2766 1759 
L 2194 1759 
z
M 3341 1997 
L 3341 0 
L 2766 0 
L 2766 531 
Q 2569 213 2275 61 
Q 1981 -91 1556 -91 
Q 1019 -91 701 211 
Q 384 513 384 1019 
Q 384 1609 779 1909 
Q 1175 2209 1959 2209 
L 2766 2209 
L 2766 2266 
Q 2766 2663 2505 2880 
Q 2244 3097 1772 3097 
Q 1472 3097 1187 3025 
Q 903 2953 641 2809 
L 641 3341 
Q 956 3463 1253 3523 
Q 1550 3584 1831 3584 
Q 2591 3584 2966 3190 
Q 3341 2797 3341 1997 
z
" transform="scale(0.015625)"/>
       <path id="DejaVuSans-6e" d="M 3513 2113 
L 3513 0 
L 2938 0 
L 2938 2094 
Q 2938 2591 2744 2837 
Q 2550 3084 2163 3084 
Q 1697 3084 1428 2787 
Q 1159 2491 1159 1978 
L 1159 0 
L 581 0 
L 581 3500 
L 1159 3500 
L 1159 2956 
Q 1366 3272 1645 3428 
Q 1925 3584 2291 3584 
Q 2894 3584 3203 3211 
Q 3513 2838 3513 2113 
z
" transform="scale(0.015625)"/>
       <path id="DejaVuSans-69" d="M 603 3500 
L 1178 3500 
L 1178 0 
L 603 0 
L 603 3500 
z
M 603 4863 
L 1178 4863 
L 1178 4134 
L 603 4134 
L 603 4863 
z
" transform="scale(0.015625)"/>
       <path id="DejaVuSans-7a" d="M 353 3500 
L 3084 3500 
L 3084 2975 
L 922 459 
L 3084 459 
L 3084 0 
L 275 0 
L 275 525 
L 2438 3041 
L 353 3041 
L 353 3500 
z
" transform="scale(0.015625)"/>
       <path id="DejaVuSans-23" d="M 3272 2816 
L 2363 2816 
L 2100 1772 
L 3016 1772 
L 3272 2816 
z
M 2803 4594 
L 2478 3297 
L 3391 3297 
L 3719 4594 
L 4219 4594 
L 3897 3297 
L 4872 3297 
L 4872 2816 
L 3775 2816 
L 3519 1772 
L 4513 1772 
L 4513 1294 
L 3397 1294 
L 3072 0 
L 2572 0 
L 2894 1294 
L 1978 1294 
L 1656 0 
L 1153 0 
L 1478 1294 
L 494 1294 
L 494 1772 
L 1594 1772 
L 1856 2816 
L 850 2816 
L 850 3297 
L 1978 3297 
L 2297 4594 
L 2803 4594 
z
" transform="scale(0.015625)"/>
      </defs>
      <use xlink:href="#DejaVuSans-42" transform="translate(0 0.015625)"/>
      <use xlink:href="#DejaVuSans-61" transform="translate(68.603516 0.015625)"/>
      <use xlink:href="#DejaVuSans-6e" transform="translate(129.882812 0.015625)"/>
      <use xlink:href="#DejaVuSans-64" transform="translate(193.261719 0.015625)"/>
      <use xlink:href="#DejaVuSans-20" transform="translate(256.738281 0.015625)"/>
      <use xlink:href="#DejaVuSans-73" transform="translate(288.525391 0.015625)"/>
      <use xlink:href="#DejaVuSans-69" transform="translate(340.625 0.015625)"/>
      <use xlink:href="#DejaVuSans-7a" transform="translate(368.408203 0.015625)"/>
      <use xlink:href="#DejaVuSans-65" transform="translate(420.898438 0.015625)"/>
      <use xlink:href="#DejaVuSans-20" transform="translate(482.421875 0.015625)"/>
      <use xlink:href="#DejaVuSans-5b" transform="translate(514.208984 0.015625)"/>
      <use xlink:href="#DejaVuSans-23" transform="translate(553.222656 0.015625)"/>
      <use xlink:href="#DejaVuSans-5d" transform="translate(637.011719 0.015625)"/>
     </g>
    </g>
   </g>
   <g id="line2d_47">
    <path d="M 73.832727 237.95898 
L 94.533831 226.326964 
L 131.628606 203.22012 
L 179.600932 175.976971 
L 243.970689 139.856757 
L 316.957564 98.883105 
L 398.487273 53.568 
" clip-path="url(#pd12506e2db)" style="fill: none; stroke-dasharray: 5.55,2.4; stroke-dashoffset: 0; stroke: #1f77b4; stroke-width: 1.5"/>
    <defs>
     <path id="m0c8e2af742" d="M 0 3 
C 0.795609 3 1.55874 2.683901 2.12132 2.12132 
C 2.683901 1.55874 3 0.795609 3 0 
C 3 -0.795609 2.683901 -1.55874 2.12132 -2.12132 
C 1.55874 -2.683901 0.795609 -3 0 -3 
C -0.795609 -3 -1.55874 -2.683901 -2.12132 -2.12132 
C -2.683901 -1.55874 -3 -0.795609 -3 0 
C -3 0.795609 -2.683901 1.55874 -2.12132 2.12132 
C -1.55874 2.683901 -0.795609 3 0 3 
z
" style="stroke: #1f77b4"/>
    </defs>
    <g clip-path="url(#pd12506e2db)">
     <use xlink:href="#m0c8e2af742" x="73.832727" y="237.95898" style="fill: #1f77b4; stroke: #1f77b4"/>
     <use xlink:href="#m0c8e2af742" x="94.533831" y="226.326964" style="fill: #1f77b4; stroke: #1f77b4"/>
     <use xlink:href="#m0c8e2af742" x="131.628606" y="203.22012" style="fill: #1f77b4; stroke: #1f77b4"/>
     <use xlink:href="#m0c8e2af742" x="179.600932" y="175.976971" style="fill: #1f77b4; stroke: #1f77b4"/>
     <use xlink:href="#m0c8e2af742" x="243.970689" y="139.856757" style="fill: #1f77b4; stroke: #1f77b4"/>
     <use xlink:href="#m0c8e2af742" x="316.957564" y="98.883105" style="fill: #1f77b4; stroke: #1f77b4"/>
     <use xlink:href="#m0c8e2af742" x="398.487273" y="53.568" style="fill: #1f77b4; stroke: #1f77b4"/>
    </g>
   </g>
   <g id="line2d_48">
    <path d="M 73.832727 270.695148 
L 94.533831 267.175794 
L 131.628606 278.202856 
L 179.600932 271.224556 
L 243.970689 253.156357 
L 316.957564 234.661177 
L 398.487273 213.227327 
" clip-path="url(#pd12506e2db)" style="fill: none; stroke-dasharray: 5.55,2.4; stroke-dashoffset: 0; stroke: #ff7f0e; stroke-width: 1.5"/>
    <defs>
     <path id="m5df062119c" d="M 0 3 
C 0.795609 3 1.55874 2.683901 2.12132 2.12132 
C 2.683901 1.55874 3 0.795609 3 0 
C 3 -0.795609 2.683901 -1.55874 2.12132 -2.12132 
C 1.55874 -2.683901 0.795609 -3 0 -3 
C -0.795609 -3 -1.55874 -2.683901 -2.12132 -2.12132 
C -2.683901 -1.55874 -3 -0.795609 -3 0 
C -3 0.795609 -2.683901 1.55874 -2.12132 2.12132 
C -1.55874 2.683901 -0.795609 3 0 3 
z
" style="stroke: #ff7f0e"/>
    </defs>
    <g clip-path="url(#pd12506e2db)">
     <use xlink:href="#m5df062119c" x="73.832727" y="270.695148" style="fill: #ff7f0e; stroke: #ff7f0e"/>
     <use xlink:href="#m5df062119c" x="94.533831" y="267.175794" style="fill: #ff7f0e; stroke: #ff7f0e"/>
     <use xlink:href="#m5df062119c" x="131.628606" y="278.202856" style="fill: #ff7f0e; stroke: #ff7f0e"/>
     <use xlink:href="#m5df062119c" x="179.600932" y="271.224556" style="fill: #ff7f0e; stroke: #ff7f0e"/>
     <use xlink:href="#m5df062119c" x="243.970689" y="253.156357" style="fill: #ff7f0e; stroke: #ff7f0e"/>
     <use xlink:href="#m5df062119c" x="316.957564" y="234.661177" style="fill: #ff7f0e; stroke: #ff7f0e"/>
     <use xlink:href="#m5df062119c" x="398.487273" y="213.227327" style="fill: #ff7f0e; stroke: #ff7f0e"/>
    </g>
   </g>
   <g id="line2d_49">
    <path d="M 73.832727 270.695148 
L 94.533831 270.172734 
L 131.628606 263.068414 
L 179.600932 250.547747 
L 243.970689 236.606599 
L 316.957564 214.219603 
L 398.487273 193.722064 
" clip-path="url(#pd12506e2db)" style="fill: none; stroke-dasharray: 5.55,2.4; stroke-dashoffset: 0; stroke: #2ca02c; stroke-width: 1.5"/>
    <defs>
     <path id="me3330b0811" d="M 0 3 
C 0.795609 3 1.55874 2.683901 2.12132 2.12132 
C 2.683901 1.55874 3 0.795609 3 0 
C 3 -0.795609 2.683901 -1.55874 2.12132 -2.12132 
C 1.55874 -2.683901 0.795609 -3 0 -3 
C -0.795609 -3 -1.55874 -2.683901 -2.12132 -2.12132 
C -2.683901 -1.55874 -3 -0.795609 -3 0 
C -3 0.795609 -2.683901 1.55874 -2.12132 2.12132 
C -1.55874 2.683901 -0.795609 3 0 3 
z
" style="stroke: #2ca02c"/>
    </defs>
    <g clip-path="url(#pd12506e2db)">
     <use xlink:href="#me3330b0811" x="73.832727" y="270.695148" style="fill: #2ca02c; stroke: #2ca02c"/>
     <use xlink:href="#me3330b0811" x="94.533831" y="270.172734" style="fill: #2ca02c; stroke: #2ca02c"/>
     <use xlink:href="#me3330b0811" x="131.628606" y="263.068414" style="fill: #2ca02c; stroke: #2ca02c"/>
     <use xlink:href="#me3330b0811" x="179.600932" y="250.547747" style="fill: #2ca02c; stroke: #2ca02c"/>
     <use xlink:href="#me3330b0811" x="243.970689" y="236.606599" style="fill: #2ca02c; stroke: #2ca02c"/>
     <use xlink:href="#me3330b0811" x="316.957564" y="214.219603" style="fill: #2ca02c; stroke: #2ca02c"/>
     <use xlink:href="#me3330b0811" x="398.487273" y="193.722064" style="fill: #2ca02c; stroke: #2ca02c"/>
    </g>
   </g>
   <g id="line2d_50">
    <path d="M 73.832727 295.488 
L 94.533831 295.488 
L 131.628606 289.127449 
L 179.600932 290.842538 
L 243.970689 281.519164 
L 316.957564 265.2973 
L 398.487273 244.422865 
" clip-path="url(#pd12506e2db)" style="fill: none; stroke-dasharray: 5.55,2.4; stroke-dashoffset: 0; stroke: #d62728; stroke-width: 1.5"/>
    <defs>
     <path id="mbb376a9016" d="M 0 3 
C 0.795609 3 1.55874 2.683901 2.12132 2.12132 
C 2.683901 1.55874 3 0.795609 3 0 
C 3 -0.795609 2.683901 -1.55874 2.12132 -2.12132 
C 1.55874 -2.683901 0.795609 -3 0 -3 
C -0.795609 -3 -1.55874 -2.683901 -2.12132 -2.12132 
C -2.683901 -1.55874 -3 -0.795609 -3 0 
C -3 0.795609 -2.683901 1.55874 -2.12132 2.12132 
C -1.55874 2.683901 -0.795609 3 0 3 
z
" style="stroke: #d62728"/>
    </defs>
    <g clip-path="url(#pd12506e2db)">
     <use xlink:href="#mbb376a9016" x="73.832727" y="295.488" style="fill: #d62728; stroke: #d62728"/>
     <use xlink:href="#mbb376a9016" x="94.533831" y="295.488" style="fill: #d62728; stroke: #d62728"/>
     <use xlink:href="#mbb376a9016" x="131.628606" y="289.127449" style="fill: #d62728; stroke: #d62728"/>
     <use xlink:href="#mbb376a9016" x="179.600932" y="290.842538" style="fill: #d62728; stroke: #d62728"/>
     <use xlink:href="#mbb376a9016" x="243.970689" y="281.519164" style="fill: #d62728; stroke: #d62728"/>
     <use xlink:href="#mbb376a9016" x="316.957564" y="265.2973" style="fill: #d62728; stroke: #d62728"/>
     <use xlink:href="#mbb376a9016" x="398.487273" y="244.422865" style="fill: #d62728; stroke: #d62728"/>
    </g>
   </g>
   <g id="line2d_51">
    <path d="M 73.832727 244.798693 
L 94.533831 233.243033 
L 131.628606 212.536184 
L 179.600932 185.757327 
L 243.970689 149.825182 
L 316.957564 109.082836 
L 398.487273 63.571754 
" clip-path="url(#pd12506e2db)" style="fill: none; stroke: #9467bd; stroke-width: 1.5; stroke-linecap: square"/>
   </g>
   <g id="line2d_52">
    <path d="M 73.832727 263.890214 
L 94.533831 258.112384 
L 131.628606 247.75896 
L 179.600932 234.369531 
L 243.970689 216.403459 
L 316.957564 196.032286 
L 398.487273 173.276745 
" clip-path="url(#pd12506e2db)" style="fill: none; stroke: #8c564b; stroke-width: 1.5; stroke-linecap: square"/>
   </g>
   <g id="patch_3">
    <path d="M 57.6 307.584 
L 57.6 41.472 
" style="fill: none; stroke: #000000; stroke-width: 0.8; stroke-linejoin: miter; stroke-linecap: square"/>
   </g>
   <g id="patch_4">
    <path d="M 414.72 307.584 
L 414.72 41.472 
" style="fill: none; stroke: #000000; stroke-width: 0.8; stroke-linejoin: miter; stroke-linecap: square"/>
   </g>
   <g id="patch_5">
    <path d="M 57.6 307.584 
L 414.72 307.584 
" style="fill: none; stroke: #000000; stroke-width: 0.8; stroke-linejoin: miter; stroke-linecap: square"/>
   </g>
   <g id="patch_6">
    <path d="M 57.6 41.472 
L 414.72 41.472 
" style="fill: none; stroke: #000000; stroke-width: 0.8; stroke-linejoin: miter; stroke-linecap: square"/>
   </g>
   <g id="text_8">
    <!-- Band Size with Different Reordering -->
    <g transform="translate(128.83125 35.472) scale(0.12 -0.12)">
     <defs>
      <path id="DejaVuSans-53" d="M 3425 4513 
L 3425 3897 
Q 3066 4069 2747 4153 
Q 2428 4238 2131 4238 
Q 1616 4238 1336 4038 
Q 1056 3838 1056 3469 
Q 1056 3159 1242 3001 
Q 1428 2844 1947 2747 
L 2328 2669 
Q 3034 2534 3370 2195 
Q 3706 1856 3706 1288 
Q 3706 609 3251 259 
Q 2797 -91 1919 -91 
Q 1588 -91 1214 -16 
Q 841 59 441 206 
L 441 856 
Q 825 641 1194 531 
Q 1563 422 1919 422 
Q 2459 422 2753 634 
Q 3047 847 3047 1241 
Q 3047 1584 2836 1778 
Q 2625 1972 2144 2069 
L 1759 2144 
Q 1053 2284 737 2584 
Q 422 2884 422 3419 
Q 422 4038 858 4394 
Q 1294 4750 2059 4750 
Q 2388 4750 2728 4690 
Q 3069 4631 3425 4513 
z
" transform="scale(0.015625)"/>
      <path id="DejaVuSans-77" d="M 269 3500 
L 844 3500 
L 1563 769 
L 2278 3500 
L 2956 3500 
L 3675 769 
L 4391 3500 
L 4966 3500 
L 4050 0 
L 3372 0 
L 2619 2869 
L 1863 0 
L 1184 0 
L 269 3500 
z
" transform="scale(0.015625)"/>
      <path id="DejaVuSans-74" d="M 1172 4494 
L 1172 3500 
L 2356 3500 
L 2356 3053 
L 1172 3053 
L 1172 1153 
Q 1172 725 1289 603 
Q 1406 481 1766 481 
L 2356 481 
L 2356 0 
L 1766 0 
Q 1100 0 847 248 
Q 594 497 594 1153 
L 594 3053 
L 172 3053 
L 172 3500 
L 594 3500 
L 594 4494 
L 1172 4494 
z
" transform="scale(0.015625)"/>
      <path id="DejaVuSans-68" d="M 3513 2113 
L 3513 0 
L 2938 0 
L 2938 2094 
Q 2938 2591 2744 2837 
Q 2550 3084 2163 3084 
Q 1697 3084 1428 2787 
Q 1159 2491 1159 1978 
L 1159 0 
L 581 0 
L 581 4863 
L 1159 4863 
L 1159 2956 
Q 1366 3272 1645 3428 
Q 1925 3584 2291 3584 
Q 2894 3584 3203 3211 
Q 3513 2838 3513 2113 
z
" transform="scale(0.015625)"/>
      <path id="DejaVuSans-44" d="M 1259 4147 
L 1259 519 
L 2022 519 
Q 2988 519 3436 956 
Q 3884 1394 3884 2338 
Q 3884 3275 3436 3711 
Q 2988 4147 2022 4147 
L 1259 4147 
z
M 628 4666 
L 1925 4666 
Q 3281 4666 3915 4102 
Q 4550 3538 4550 2338 
Q 4550 1131 3912 565 
Q 3275 0 1925 0 
L 628 0 
L 628 4666 
z
" transform="scale(0.015625)"/>
      <path id="DejaVuSans-52" d="M 2841 2188 
Q 3044 2119 3236 1894 
Q 3428 1669 3622 1275 
L 4263 0 
L 3584 0 
L 2988 1197 
Q 2756 1666 2539 1819 
Q 2322 1972 1947 1972 
L 1259 1972 
L 1259 0 
L 628 0 
L 628 4666 
L 2053 4666 
Q 2853 4666 3247 4331 
Q 3641 3997 3641 3322 
Q 3641 2881 3436 2590 
Q 3231 2300 2841 2188 
z
M 1259 4147 
L 1259 2491 
L 2053 2491 
Q 2509 2491 2742 2702 
Q 2975 2913 2975 3322 
Q 2975 3731 2742 3939 
Q 2509 4147 2053 4147 
L 1259 4147 
z
" transform="scale(0.015625)"/>
      <path id="DejaVuSans-67" d="M 2906 1791 
Q 2906 2416 2648 2759 
Q 2391 3103 1925 3103 
Q 1463 3103 1205 2759 
Q 947 2416 947 1791 
Q 947 1169 1205 825 
Q 1463 481 1925 481 
Q 2391 481 2648 825 
Q 2906 1169 2906 1791 
z
M 3481 434 
Q 3481 -459 3084 -895 
Q 2688 -1331 1869 -1331 
Q 1566 -1331 1297 -1286 
Q 1028 -1241 775 -1147 
L 775 -588 
Q 1028 -725 1275 -790 
Q 1522 -856 1778 -856 
Q 2344 -856 2625 -561 
Q 2906 -266 2906 331 
L 2906 616 
Q 2728 306 2450 153 
Q 2172 0 1784 0 
Q 1141 0 747 490 
Q 353 981 353 1791 
Q 353 2603 747 3093 
Q 1141 3584 1784 3584 
Q 2172 3584 2450 3431 
Q 2728 3278 2906 2969 
L 2906 3500 
L 3481 3500 
L 3481 434 
z
" transform="scale(0.015625)"/>
     </defs>
     <use xlink:href="#DejaVuSans-42"/>
     <use xlink:href="#DejaVuSans-61" x="68.603516"/>
     <use xlink:href="#DejaVuSans-6e" x="129.882812"/>
     <use xlink:href="#DejaVuSans-64" x="193.261719"/>
     <use xlink:href="#DejaVuSans-20" x="256.738281"/>
     <use xlink:href="#DejaVuSans-53" x="288.525391"/>
     <use xlink:href="#DejaVuSans-69" x="352.001953"/>
     <use xlink:href="#DejaVuSans-7a" x="379.785156"/>
     <use xlink:href="#DejaVuSans-65" x="432.275391"/>
     <use xlink:href="#DejaVuSans-20" x="493.798828"/>
     <use xlink:href="#DejaVuSans-77" x="525.585938"/>
     <use xlink:href="#DejaVuSans-69" x="607.373047"/>
     <use xlink:href="#DejaVuSans-74" x="635.15625"/>
     <use xlink:href="#DejaVuSans-68" x="674.365234"/>
     <use xlink:href="#DejaVuSans-20" x="737.744141"/>
     <use xlink:href="#DejaVuSans-44" x="769.53125"/>
     <use xlink:href="#DejaVuSans-69" x="846.533203"/>
     <use xlink:href="#DejaVuSans-66" x="874.316406"/>
     <use xlink:href="#DejaVuSans-66" x="909.521484"/>
     <use xlink:href="#DejaVuSans-65" x="944.726562"/>
     <use xlink:href="#DejaVuSans-72" x="1006.25"/>
     <use xlink:href="#DejaVuSans-65" x="1045.113281"/>
     <use xlink:href="#DejaVuSans-6e" x="1106.636719"/>
     <use xlink:href="#DejaVuSans-74" x="1170.015625"/>
     <use xlink:href="#DejaVuSans-20" x="1209.224609"/>
     <use xlink:href="#DejaVuSans-52" x="1241.011719"/>
     <use xlink:href="#DejaVuSans-65" x="1305.994141"/>
     <use xlink:href="#DejaVuSans-6f" x="1367.517578"/>
     <use xlink:href="#DejaVuSans-72" x="1428.699219"/>
     <use xlink:href="#DejaVuSans-64" x="1468.0625"/>
     <use xlink:href="#DejaVuSans-65" x="1531.539062"/>
     <use xlink:href="#DejaVuSans-72" x="1593.0625"/>
     <use xlink:href="#DejaVuSans-69" x="1634.175781"/>
     <use xlink:href="#DejaVuSans-6e" x="1661.958984"/>
     <use xlink:href="#DejaVuSans-67" x="1725.337891"/>
    </g>
   </g>
   <g id="legend_1">
    <g id="patch_7">
     <path d="M 63.431 122.533312 
L 296.0046 122.533312 
Q 297.6706 122.533312 297.6706 120.867312 
L 297.6706 47.303 
Q 297.6706 45.637 296.0046 45.637 
L 63.431 45.637 
Q 61.765 45.637 61.765 47.303 
L 61.765 120.867312 
Q 61.765 122.533312 63.431 122.533312 
z
" style="fill: #ffffff; opacity: 0.8; stroke: #cccccc; stroke-linejoin: miter"/>
    </g>
    <g id="line2d_53">
     <path d="M 65.097 52.382998 
L 73.427 52.382998 
L 81.757 52.382998 
" style="fill: none; stroke-dasharray: 5.55,2.4; stroke-dashoffset: 0; stroke: #1f77b4; stroke-width: 1.5"/>
     <g>
      <use xlink:href="#m0c8e2af742" x="73.427" y="52.382998" style="fill: #1f77b4; stroke: #1f77b4"/>
     </g>
    </g>
    <g id="text_9">
     <!-- Band Size without reordering -->
     <g transform="translate(88.421 55.298498) scale(0.0833 -0.0833)">
      <use xlink:href="#DejaVuSans-42"/>
      <use xlink:href="#DejaVuSans-61" x="68.603516"/>
      <use xlink:href="#DejaVuSans-6e" x="129.882812"/>
      <use xlink:href="#DejaVuSans-64" x="193.261719"/>
      <use xlink:href="#DejaVuSans-20" x="256.738281"/>
      <use xlink:href="#DejaVuSans-53" x="288.525391"/>
      <use xlink:href="#DejaVuSans-69" x="352.001953"/>
      <use xlink:href="#DejaVuSans-7a" x="379.785156"/>
      <use xlink:href="#DejaVuSans-65" x="432.275391"/>
      <use xlink:href="#DejaVuSans-20" x="493.798828"/>
      <use xlink:href="#DejaVuSans-77" x="525.585938"/>
      <use xlink:href="#DejaVuSans-69" x="607.373047"/>
      <use xlink:href="#DejaVuSans-74" x="635.15625"/>
      <use xlink:href="#DejaVuSans-68" x="674.365234"/>
      <use xlink:href="#DejaVuSans-6f" x="737.744141"/>
      <use xlink:href="#DejaVuSans-75" x="798.925781"/>
      <use xlink:href="#DejaVuSans-74" x="862.304688"/>
      <use xlink:href="#DejaVuSans-20" x="901.513672"/>
      <use xlink:href="#DejaVuSans-72" x="933.300781"/>
      <use xlink:href="#DejaVuSans-65" x="972.164062"/>
      <use xlink:href="#DejaVuSans-6f" x="1033.6875"/>
      <use xlink:href="#DejaVuSans-72" x="1094.869141"/>
      <use xlink:href="#DejaVuSans-64" x="1134.232422"/>
      <use xlink:href="#DejaVuSans-65" x="1197.708984"/>
      <use xlink:href="#DejaVuSans-72" x="1259.232422"/>
      <use xlink:href="#DejaVuSans-69" x="1300.345703"/>
      <use xlink:href="#DejaVuSans-6e" x="1328.128906"/>
      <use xlink:href="#DejaVuSans-67" x="1391.507812"/>
     </g>
    </g>
    <g id="line2d_54">
     <path d="M 65.097 64.609877 
L 73.427 64.609877 
L 81.757 64.609877 
" style="fill: none; stroke-dasharray: 5.55,2.4; stroke-dashoffset: 0; stroke: #ff7f0e; stroke-width: 1.5"/>
     <g>
      <use xlink:href="#m5df062119c" x="73.427" y="64.609877" style="fill: #ff7f0e; stroke: #ff7f0e"/>
     </g>
    </g>
    <g id="text_10">
     <!-- Band Size with X reordering -->
     <g transform="translate(88.421 67.525377) scale(0.0833 -0.0833)">
      <defs>
       <path id="DejaVuSans-58" d="M 403 4666 
L 1081 4666 
L 2241 2931 
L 3406 4666 
L 4084 4666 
L 2584 2425 
L 4184 0 
L 3506 0 
L 2194 1984 
L 872 0 
L 191 0 
L 1856 2491 
L 403 4666 
z
" transform="scale(0.015625)"/>
      </defs>
      <use xlink:href="#DejaVuSans-42"/>
      <use xlink:href="#DejaVuSans-61" x="68.603516"/>
      <use xlink:href="#DejaVuSans-6e" x="129.882812"/>
      <use xlink:href="#DejaVuSans-64" x="193.261719"/>
      <use xlink:href="#DejaVuSans-20" x="256.738281"/>
      <use xlink:href="#DejaVuSans-53" x="288.525391"/>
      <use xlink:href="#DejaVuSans-69" x="352.001953"/>
      <use xlink:href="#DejaVuSans-7a" x="379.785156"/>
      <use xlink:href="#DejaVuSans-65" x="432.275391"/>
      <use xlink:href="#DejaVuSans-20" x="493.798828"/>
      <use xlink:href="#DejaVuSans-77" x="525.585938"/>
      <use xlink:href="#DejaVuSans-69" x="607.373047"/>
      <use xlink:href="#DejaVuSans-74" x="635.15625"/>
      <use xlink:href="#DejaVuSans-68" x="674.365234"/>
      <use xlink:href="#DejaVuSans-20" x="737.744141"/>
      <use xlink:href="#DejaVuSans-58" x="769.53125"/>
      <use xlink:href="#DejaVuSans-20" x="838.037109"/>
      <use xlink:href="#DejaVuSans-72" x="869.824219"/>
      <use xlink:href="#DejaVuSans-65" x="908.6875"/>
      <use xlink:href="#DejaVuSans-6f" x="970.210938"/>
      <use xlink:href="#DejaVuSans-72" x="1031.392578"/>
      <use xlink:href="#DejaVuSans-64" x="1070.755859"/>
      <use xlink:href="#DejaVuSans-65" x="1134.232422"/>
      <use xlink:href="#DejaVuSans-72" x="1195.755859"/>
      <use xlink:href="#DejaVuSans-69" x="1236.869141"/>
      <use xlink:href="#DejaVuSans-6e" x="1264.652344"/>
      <use xlink:href="#DejaVuSans-67" x="1328.03125"/>
     </g>
    </g>
    <g id="line2d_55">
     <path d="M 65.097 76.836755 
L 73.427 76.836755 
L 81.757 76.836755 
" style="fill: none; stroke-dasharray: 5.55,2.4; stroke-dashoffset: 0; stroke: #2ca02c; stroke-width: 1.5"/>
     <g>
      <use xlink:href="#me3330b0811" x="73.427" y="76.836755" style="fill: #2ca02c; stroke: #2ca02c"/>
     </g>
    </g>
    <g id="text_11">
     <!-- Band Size with Y reordering -->
     <g transform="translate(88.421 79.752255) scale(0.0833 -0.0833)">
      <defs>
       <path id="DejaVuSans-59" d="M -13 4666 
L 666 4666 
L 1959 2747 
L 3244 4666 
L 3922 4666 
L 2272 2222 
L 2272 0 
L 1638 0 
L 1638 2222 
L -13 4666 
z
" transform="scale(0.015625)"/>
      </defs>
      <use xlink:href="#DejaVuSans-42"/>
      <use xlink:href="#DejaVuSans-61" x="68.603516"/>
      <use xlink:href="#DejaVuSans-6e" x="129.882812"/>
      <use xlink:href="#DejaVuSans-64" x="193.261719"/>
      <use xlink:href="#DejaVuSans-20" x="256.738281"/>
      <use xlink:href="#DejaVuSans-53" x="288.525391"/>
      <use xlink:href="#DejaVuSans-69" x="352.001953"/>
      <use xlink:href="#DejaVuSans-7a" x="379.785156"/>
      <use xlink:href="#DejaVuSans-65" x="432.275391"/>
      <use xlink:href="#DejaVuSans-20" x="493.798828"/>
      <use xlink:href="#DejaVuSans-77" x="525.585938"/>
      <use xlink:href="#DejaVuSans-69" x="607.373047"/>
      <use xlink:href="#DejaVuSans-74" x="635.15625"/>
      <use xlink:href="#DejaVuSans-68" x="674.365234"/>
      <use xlink:href="#DejaVuSans-20" x="737.744141"/>
      <use xlink:href="#DejaVuSans-59" x="769.53125"/>
      <use xlink:href="#DejaVuSans-20" x="830.615234"/>
      <use xlink:href="#DejaVuSans-72" x="862.402344"/>
      <use xlink:href="#DejaVuSans-65" x="901.265625"/>
      <use xlink:href="#DejaVuSans-6f" x="962.789062"/>
      <use xlink:href="#DejaVuSans-72" x="1023.970703"/>
      <use xlink:href="#DejaVuSans-64" x="1063.333984"/>
      <use xlink:href="#DejaVuSans-65" x="1126.810547"/>
      <use xlink:href="#DejaVuSans-72" x="1188.333984"/>
      <use xlink:href="#DejaVuSans-69" x="1229.447266"/>
      <use xlink:href="#DejaVuSans-6e" x="1257.230469"/>
      <use xlink:href="#DejaVuSans-67" x="1320.609375"/>
     </g>
    </g>
    <g id="line2d_56">
     <path d="M 65.097 89.063633 
L 73.427 89.063633 
L 81.757 89.063633 
" style="fill: none; stroke-dasharray: 5.55,2.4; stroke-dashoffset: 0; stroke: #d62728; stroke-width: 1.5"/>
     <g>
      <use xlink:href="#mbb376a9016" x="73.427" y="89.063633" style="fill: #d62728; stroke: #d62728"/>
     </g>
    </g>
    <g id="text_12">
     <!-- Band Size with RCMK reordering -->
     <g transform="translate(88.421 91.979133) scale(0.0833 -0.0833)">
      <defs>
       <path id="DejaVuSans-43" d="M 4122 4306 
L 4122 3641 
Q 3803 3938 3442 4084 
Q 3081 4231 2675 4231 
Q 1875 4231 1450 3742 
Q 1025 3253 1025 2328 
Q 1025 1406 1450 917 
Q 1875 428 2675 428 
Q 3081 428 3442 575 
Q 3803 722 4122 1019 
L 4122 359 
Q 3791 134 3420 21 
Q 3050 -91 2638 -91 
Q 1578 -91 968 557 
Q 359 1206 359 2328 
Q 359 3453 968 4101 
Q 1578 4750 2638 4750 
Q 3056 4750 3426 4639 
Q 3797 4528 4122 4306 
z
" transform="scale(0.015625)"/>
       <path id="DejaVuSans-4d" d="M 628 4666 
L 1569 4666 
L 2759 1491 
L 3956 4666 
L 4897 4666 
L 4897 0 
L 4281 0 
L 4281 4097 
L 3078 897 
L 2444 897 
L 1241 4097 
L 1241 0 
L 628 0 
L 628 4666 
z
" transform="scale(0.015625)"/>
       <path id="DejaVuSans-4b" d="M 628 4666 
L 1259 4666 
L 1259 2694 
L 3353 4666 
L 4166 4666 
L 1850 2491 
L 4331 0 
L 3500 0 
L 1259 2247 
L 1259 0 
L 628 0 
L 628 4666 
z
" transform="scale(0.015625)"/>
      </defs>
      <use xlink:href="#DejaVuSans-42"/>
      <use xlink:href="#DejaVuSans-61" x="68.603516"/>
      <use xlink:href="#DejaVuSans-6e" x="129.882812"/>
      <use xlink:href="#DejaVuSans-64" x="193.261719"/>
      <use xlink:href="#DejaVuSans-20" x="256.738281"/>
      <use xlink:href="#DejaVuSans-53" x="288.525391"/>
      <use xlink:href="#DejaVuSans-69" x="352.001953"/>
      <use xlink:href="#DejaVuSans-7a" x="379.785156"/>
      <use xlink:href="#DejaVuSans-65" x="432.275391"/>
      <use xlink:href="#DejaVuSans-20" x="493.798828"/>
      <use xlink:href="#DejaVuSans-77" x="525.585938"/>
      <use xlink:href="#DejaVuSans-69" x="607.373047"/>
      <use xlink:href="#DejaVuSans-74" x="635.15625"/>
      <use xlink:href="#DejaVuSans-68" x="674.365234"/>
      <use xlink:href="#DejaVuSans-20" x="737.744141"/>
      <use xlink:href="#DejaVuSans-52" x="769.53125"/>
      <use xlink:href="#DejaVuSans-43" x="834.013672"/>
      <use xlink:href="#DejaVuSans-4d" x="903.837891"/>
      <use xlink:href="#DejaVuSans-4b" x="990.117188"/>
      <use xlink:href="#DejaVuSans-20" x="1055.693359"/>
      <use xlink:href="#DejaVuSans-72" x="1087.480469"/>
      <use xlink:href="#DejaVuSans-65" x="1126.34375"/>
      <use xlink:href="#DejaVuSans-6f" x="1187.867188"/>
      <use xlink:href="#DejaVuSans-72" x="1249.048828"/>
      <use xlink:href="#DejaVuSans-64" x="1288.412109"/>
      <use xlink:href="#DejaVuSans-65" x="1351.888672"/>
      <use xlink:href="#DejaVuSans-72" x="1413.412109"/>
      <use xlink:href="#DejaVuSans-69" x="1454.525391"/>
      <use xlink:href="#DejaVuSans-6e" x="1482.308594"/>
      <use xlink:href="#DejaVuSans-67" x="1545.6875"/>
     </g>
    </g>
    <g id="line2d_57">
     <path d="M 65.097 101.291812 
L 73.427 101.291812 
L 81.757 101.291812 
" style="fill: none; stroke: #9467bd; stroke-width: 1.5; stroke-linecap: square"/>
    </g>
    <g id="text_13">
     <!-- Complexity of Band Size without reordering: $O(n)$ -->
     <g transform="translate(88.421 104.207312) scale(0.0833 -0.0833)">
      <defs>
       <path id="DejaVuSans-70" d="M 1159 525 
L 1159 -1331 
L 581 -1331 
L 581 3500 
L 1159 3500 
L 1159 2969 
Q 1341 3281 1617 3432 
Q 1894 3584 2278 3584 
Q 2916 3584 3314 3078 
Q 3713 2572 3713 1747 
Q 3713 922 3314 415 
Q 2916 -91 2278 -91 
Q 1894 -91 1617 61 
Q 1341 213 1159 525 
z
M 3116 1747 
Q 3116 2381 2855 2742 
Q 2594 3103 2138 3103 
Q 1681 3103 1420 2742 
Q 1159 2381 1159 1747 
Q 1159 1113 1420 752 
Q 1681 391 2138 391 
Q 2594 391 2855 752 
Q 3116 1113 3116 1747 
z
" transform="scale(0.015625)"/>
       <path id="DejaVuSans-6c" d="M 603 4863 
L 1178 4863 
L 1178 0 
L 603 0 
L 603 4863 
z
" transform="scale(0.015625)"/>
       <path id="DejaVuSans-78" d="M 3513 3500 
L 2247 1797 
L 3578 0 
L 2900 0 
L 1881 1375 
L 863 0 
L 184 0 
L 1544 1831 
L 300 3500 
L 978 3500 
L 1906 2253 
L 2834 3500 
L 3513 3500 
z
" transform="scale(0.015625)"/>
       <path id="DejaVuSans-79" d="M 2059 -325 
Q 1816 -950 1584 -1140 
Q 1353 -1331 966 -1331 
L 506 -1331 
L 506 -850 
L 844 -850 
Q 1081 -850 1212 -737 
Q 1344 -625 1503 -206 
L 1606 56 
L 191 3500 
L 800 3500 
L 1894 763 
L 2988 3500 
L 3597 3500 
L 2059 -325 
z
" transform="scale(0.015625)"/>
       <path id="DejaVuSans-3a" d="M 750 794 
L 1409 794 
L 1409 0 
L 750 0 
L 750 794 
z
M 750 3309 
L 1409 3309 
L 1409 2516 
L 750 2516 
L 750 3309 
z
" transform="scale(0.015625)"/>
       <path id="DejaVuSans-Oblique-4f" d="M 2919 4238 
Q 2400 4238 2003 3986 
Q 1606 3734 1313 3219 
Q 1125 2891 1026 2522 
Q 928 2153 928 1778 
Q 928 1128 1239 775 
Q 1550 422 2119 422 
Q 2631 422 3032 676 
Q 3434 931 3719 1434 
Q 3909 1772 4009 2142 
Q 4109 2513 4109 2881 
Q 4109 3528 3796 3883 
Q 3484 4238 2919 4238 
z
M 2100 -91 
Q 1241 -91 748 418 
Q 256 928 256 1813 
Q 256 2319 448 2847 
Q 641 3375 978 3788 
Q 1375 4272 1862 4511 
Q 2350 4750 2938 4750 
Q 3794 4750 4287 4245 
Q 4781 3741 4781 2869 
Q 4781 2331 4593 1812 
Q 4406 1294 4056 872 
Q 3656 384 3173 146 
Q 2691 -91 2100 -91 
z
" transform="scale(0.015625)"/>
       <path id="DejaVuSans-28" d="M 1984 4856 
Q 1566 4138 1362 3434 
Q 1159 2731 1159 2009 
Q 1159 1288 1364 580 
Q 1569 -128 1984 -844 
L 1484 -844 
Q 1016 -109 783 600 
Q 550 1309 550 2009 
Q 550 2706 781 3412 
Q 1013 4119 1484 4856 
L 1984 4856 
z
" transform="scale(0.015625)"/>
       <path id="DejaVuSans-29" d="M 513 4856 
L 1013 4856 
Q 1481 4119 1714 3412 
Q 1947 2706 1947 2009 
Q 1947 1309 1714 600 
Q 1481 -109 1013 -844 
L 513 -844 
Q 928 -128 1133 580 
Q 1338 1288 1338 2009 
Q 1338 2731 1133 3434 
Q 928 4138 513 4856 
z
" transform="scale(0.015625)"/>
      </defs>
      <use xlink:href="#DejaVuSans-43" transform="translate(0 0.015625)"/>
      <use xlink:href="#DejaVuSans-6f" transform="translate(69.824219 0.015625)"/>
      <use xlink:href="#DejaVuSans-6d" transform="translate(131.005859 0.015625)"/>
      <use xlink:href="#DejaVuSans-70" transform="translate(228.417969 0.015625)"/>
      <use xlink:href="#DejaVuSans-6c" transform="translate(291.894531 0.015625)"/>
      <use xlink:href="#DejaVuSans-65" transform="translate(319.677734 0.015625)"/>
      <use xlink:href="#DejaVuSans-78" transform="translate(381.201172 0.015625)"/>
      <use xlink:href="#DejaVuSans-69" transform="translate(440.380859 0.015625)"/>
      <use xlink:href="#DejaVuSans-74" transform="translate(468.164062 0.015625)"/>
      <use xlink:href="#DejaVuSans-79" transform="translate(507.373047 0.015625)"/>
      <use xlink:href="#DejaVuSans-20" transform="translate(566.552734 0.015625)"/>
      <use xlink:href="#DejaVuSans-6f" transform="translate(598.339844 0.015625)"/>
      <use xlink:href="#DejaVuSans-66" transform="translate(659.521484 0.015625)"/>
      <use xlink:href="#DejaVuSans-20" transform="translate(694.726562 0.015625)"/>
      <use xlink:href="#DejaVuSans-42" transform="translate(726.513672 0.015625)"/>
      <use xlink:href="#DejaVuSans-61" transform="translate(795.117188 0.015625)"/>
      <use xlink:href="#DejaVuSans-6e" transform="translate(856.396484 0.015625)"/>
      <use xlink:href="#DejaVuSans-64" transform="translate(919.775391 0.015625)"/>
      <use xlink:href="#DejaVuSans-20" transform="translate(983.251953 0.015625)"/>
      <use xlink:href="#DejaVuSans-53" transform="translate(1015.039062 0.015625)"/>
      <use xlink:href="#DejaVuSans-69" transform="translate(1078.515625 0.015625)"/>
      <use xlink:href="#DejaVuSans-7a" transform="translate(1106.298828 0.015625)"/>
      <use xlink:href="#DejaVuSans-65" transform="translate(1158.789062 0.015625)"/>
      <use xlink:href="#DejaVuSans-20" transform="translate(1220.3125 0.015625)"/>
      <use xlink:href="#DejaVuSans-77" transform="translate(1252.099609 0.015625)"/>
      <use xlink:href="#DejaVuSans-69" transform="translate(1333.886719 0.015625)"/>
      <use xlink:href="#DejaVuSans-74" transform="translate(1361.669922 0.015625)"/>
      <use xlink:href="#DejaVuSans-68" transform="translate(1400.878906 0.015625)"/>
      <use xlink:href="#DejaVuSans-6f" transform="translate(1464.257812 0.015625)"/>
      <use xlink:href="#DejaVuSans-75" transform="translate(1525.439453 0.015625)"/>
      <use xlink:href="#DejaVuSans-74" transform="translate(1588.818359 0.015625)"/>
      <use xlink:href="#DejaVuSans-20" transform="translate(1628.027344 0.015625)"/>
      <use xlink:href="#DejaVuSans-72" transform="translate(1659.814453 0.015625)"/>
      <use xlink:href="#DejaVuSans-65" transform="translate(1700.927734 0.015625)"/>
      <use xlink:href="#DejaVuSans-6f" transform="translate(1762.451172 0.015625)"/>
      <use xlink:href="#DejaVuSans-72" transform="translate(1823.632812 0.015625)"/>
      <use xlink:href="#DejaVuSans-64" transform="translate(1864.746094 0.015625)"/>
      <use xlink:href="#DejaVuSans-65" transform="translate(1928.222656 0.015625)"/>
      <use xlink:href="#DejaVuSans-72" transform="translate(1989.746094 0.015625)"/>
      <use xlink:href="#DejaVuSans-69" transform="translate(2030.859375 0.015625)"/>
      <use xlink:href="#DejaVuSans-6e" transform="translate(2058.642578 0.015625)"/>
      <use xlink:href="#DejaVuSans-67" transform="translate(2122.021484 0.015625)"/>
      <use xlink:href="#DejaVuSans-3a" transform="translate(2185.498047 0.015625)"/>
      <use xlink:href="#DejaVuSans-20" transform="translate(2219.189453 0.015625)"/>
      <use xlink:href="#DejaVuSans-Oblique-4f" transform="translate(2250.976562 0.015625)"/>
      <use xlink:href="#DejaVuSans-28" transform="translate(2329.6875 0.015625)"/>
      <use xlink:href="#DejaVuSans-Oblique-6e" transform="translate(2368.701172 0.015625)"/>
      <use xlink:href="#DejaVuSans-29" transform="translate(2432.080078 0.015625)"/>
     </g>
    </g>
    <g id="line2d_58">
     <path d="M 65.097 114.536512 
L 73.427 114.536512 
L 81.757 114.536512 
" style="fill: none; stroke: #8c564b; stroke-width: 1.5; stroke-linecap: square"/>
    </g>
    <g id="text_14">
     <!-- Complexity of Band Size with reordering: $O(\sqrt{n})$ -->
     <g transform="translate(88.421 117.452012) scale(0.0833 -0.0833)">
      <defs>
       <path id="DejaVuSans-221a" d="M 3488 5191 
L 4078 5191 
L 4078 4891 
L 3719 4891 
L 1863 -128 
L 1656 -128 
L 659 2631 
L 269 2491 
L 191 2741 
L 1075 3047 
L 1875 831 
L 3488 5191 
z
" transform="scale(0.015625)"/>
      </defs>
      <use xlink:href="#DejaVuSans-43" transform="translate(0 0.890625)"/>
      <use xlink:href="#DejaVuSans-6f" transform="translate(69.824219 0.890625)"/>
      <use xlink:href="#DejaVuSans-6d" transform="translate(131.005859 0.890625)"/>
      <use xlink:href="#DejaVuSans-70" transform="translate(228.417969 0.890625)"/>
      <use xlink:href="#DejaVuSans-6c" transform="translate(291.894531 0.890625)"/>
      <use xlink:href="#DejaVuSans-65" transform="translate(319.677734 0.890625)"/>
      <use xlink:href="#DejaVuSans-78" transform="translate(381.201172 0.890625)"/>
      <use xlink:href="#DejaVuSans-69" transform="translate(440.380859 0.890625)"/>
      <use xlink:href="#DejaVuSans-74" transform="translate(468.164062 0.890625)"/>
      <use xlink:href="#DejaVuSans-79" transform="translate(507.373047 0.890625)"/>
      <use xlink:href="#DejaVuSans-20" transform="translate(566.552734 0.890625)"/>
      <use xlink:href="#DejaVuSans-6f" transform="translate(598.339844 0.890625)"/>
      <use xlink:href="#DejaVuSans-66" transform="translate(659.521484 0.890625)"/>
      <use xlink:href="#DejaVuSans-20" transform="translate(694.726562 0.890625)"/>
      <use xlink:href="#DejaVuSans-42" transform="translate(726.513672 0.890625)"/>
      <use xlink:href="#DejaVuSans-61" transform="translate(795.117188 0.890625)"/>
      <use xlink:href="#DejaVuSans-6e" transform="translate(856.396484 0.890625)"/>
      <use xlink:href="#DejaVuSans-64" transform="translate(919.775391 0.890625)"/>
      <use xlink:href="#DejaVuSans-20" transform="translate(983.251953 0.890625)"/>
      <use xlink:href="#DejaVuSans-53" transform="translate(1015.039062 0.890625)"/>
      <use xlink:href="#DejaVuSans-69" transform="translate(1078.515625 0.890625)"/>
      <use xlink:href="#DejaVuSans-7a" transform="translate(1106.298828 0.890625)"/>
      <use xlink:href="#DejaVuSans-65" transform="translate(1158.789062 0.890625)"/>
      <use xlink:href="#DejaVuSans-20" transform="translate(1220.3125 0.890625)"/>
      <use xlink:href="#DejaVuSans-77" transform="translate(1252.099609 0.890625)"/>
      <use xlink:href="#DejaVuSans-69" transform="translate(1333.886719 0.890625)"/>
      <use xlink:href="#DejaVuSans-74" transform="translate(1361.669922 0.890625)"/>
      <use xlink:href="#DejaVuSans-68" transform="translate(1400.878906 0.890625)"/>
      <use xlink:href="#DejaVuSans-20" transform="translate(1464.257812 0.890625)"/>
      <use xlink:href="#DejaVuSans-72" transform="translate(1496.044922 0.890625)"/>
      <use xlink:href="#DejaVuSans-65" transform="translate(1537.158203 0.890625)"/>
      <use xlink:href="#DejaVuSans-6f" transform="translate(1598.681641 0.890625)"/>
      <use xlink:href="#DejaVuSans-72" transform="translate(1659.863281 0.890625)"/>
      <use xlink:href="#DejaVuSans-64" transform="translate(1700.976562 0.890625)"/>
      <use xlink:href="#DejaVuSans-65" transform="translate(1764.453125 0.890625)"/>
      <use xlink:href="#DejaVuSans-72" transform="translate(1825.976562 0.890625)"/>
      <use xlink:href="#DejaVuSans-69" transform="translate(1867.089844 0.890625)"/>
      <use xlink:href="#DejaVuSans-6e" transform="translate(1894.873047 0.890625)"/>
      <use xlink:href="#DejaVuSans-67" transform="translate(1958.251953 0.890625)"/>
      <use xlink:href="#DejaVuSans-3a" transform="translate(2021.728516 0.890625)"/>
      <use xlink:href="#DejaVuSans-20" transform="translate(2055.419922 0.890625)"/>
      <use xlink:href="#DejaVuSans-Oblique-4f" transform="translate(2087.207031 0.890625)"/>
      <use xlink:href="#DejaVuSans-28" transform="translate(2165.917969 0.890625)"/>
      <use xlink:href="#DejaVuSans-221a" transform="translate(2204.931641 0.890625)"/>
      <use xlink:href="#DejaVuSans-Oblique-6e" transform="translate(2281.152344 0.75)"/>
      <use xlink:href="#DejaVuSans-29" transform="translate(2357.03125 0.890625)"/>
      <path d="M 2268.652344 75.5 
L 2268.652344 81.75 
L 2357.03125 81.75 
L 2357.03125 75.5 
L 2268.652344 75.5 
z
"/>
     </g>
    </g>
   </g>
  </g>
 </g>
 <defs>
  <clipPath id="pd12506e2db">
   <rect x="57.6" y="41.472" width="357.12" height="266.112"/>
  </clipPath>
 </defs>
</svg>
